<?xml version="1.0" encoding="UTF-8"?>
<svg xmlns="http://www.w3.org/2000/svg" xmlns:xlink="http://www.w3.org/1999/xlink" width="64pt" height="64pt" viewBox="0 0 64 64" version="1.1">
<defs>
<filter id="alpha" filterUnits="objectBoundingBox" x="0%" y="0%" width="100%" height="100%">
  <feColorMatrix type="matrix" in="SourceGraphic" values="0 0 0 0 1 0 0 0 0 1 0 0 0 0 1 0 0 0 1 0"/>
</filter>
<mask id="mask0">
  <g filter="url(#alpha)">
<rect x="0" y="0" width="64" height="64" style="fill:rgb(0%,0%,0%);fill-opacity:0.4;stroke:none;"/>
  </g>
</mask>
<clipPath id="clip1">
  <rect width="64" height="64"/>
</clipPath>
<g id="surface6" clip-path="url(#clip1)">
<path style=" stroke:none;fill-rule:nonzero;fill:rgb(33.333333%,29.019608%,63.137255%);fill-opacity:1;" d="M 30.320312 52.699219 C 28.476562 52.992188 26.582031 52.832031 24.796875 52.21875 L 24.738281 52.199219 C 24.421875 52.089844 24.078125 52.269531 23.976562 52.597656 L 22.910156 56.082031 C 22.359375 57.882812 19.917969 57.964844 19.253906 56.203125 L 18.308594 53.699219 C 18.148438 53.273438 17.566406 53.273438 17.40625 53.699219 L 16.902344 55.03125 L 16.886719 55 C 17.839844 51.078125 22.265625 49.292969 25.859375 50.910156 C 27.84375 51.804688 29.882812 52.5 31.433594 52.5 Z M 30.320312 52.699219 "/>
<path style=" stroke:none;fill-rule:evenodd;fill:rgb(33.333333%,29.019608%,63.137255%);fill-opacity:1;" d="M 3.3125 23.304688 C 4.277344 24.328125 5.871094 25 7.671875 25 C 9.476562 25 11.070312 24.328125 12.035156 23.300781 L 12.035156 20.300781 C 11.070312 21.328125 9.476562 22 7.671875 22 C 5.871094 22 4.277344 21.328125 3.3125 20.304688 Z M 3.3125 18.304688 C 4.277344 19.328125 5.871094 20 7.671875 20 C 9.476562 20 11.070312 19.328125 12.035156 18.300781 L 12.035156 15.300781 C 11.070312 16.328125 9.476562 17 7.671875 17 C 5.871094 17 4.277344 16.328125 3.3125 15.304688 Z M 3.3125 13.300781 C 4.277344 14.328125 5.871094 15 7.675781 15 C 9.476562 15 11.070312 14.328125 12.035156 13.300781 L 12.035156 10.300781 C 11.070312 11.328125 9.476562 12 7.675781 12 C 5.871094 12 4.277344 11.328125 3.3125 10.300781 Z M 3.3125 13.300781 "/>
<path style=" stroke:none;fill-rule:nonzero;fill:rgb(33.333333%,29.019608%,63.137255%);fill-opacity:1;" d="M 34.917969 8.335938 L 35.480469 9.640625 C 35.921875 10.660156 35.460938 11.851562 34.460938 12.28125 L 32.007812 13.335938 C 31.371094 13.609375 30.703125 13.019531 30.871094 12.328125 C 31.238281 10.804688 32.003906 9.414062 33.078125 8.304688 L 33.339844 8.035156 C 33.824219 7.535156 34.640625 7.691406 34.917969 8.335938 Z M 34.917969 8.335938 "/>
<path style=" stroke:none;fill-rule:nonzero;fill:rgb(33.333333%,29.019608%,63.137255%);fill-opacity:1;" d="M 53.164062 9.335938 L 52.601562 10.640625 C 52.160156 11.660156 52.621094 12.851562 53.621094 13.28125 L 56.074219 14.335938 C 56.710938 14.609375 57.378906 14.019531 57.210938 13.328125 C 56.84375 11.804688 56.078125 10.414062 55.003906 9.304688 L 54.742188 9.035156 C 54.257812 8.535156 53.441406 8.691406 53.164062 9.335938 Z M 53.164062 9.335938 "/>
<path style=" stroke:none;fill-rule:nonzero;fill:rgb(33.333333%,29.019608%,63.137255%);fill-opacity:1;" d="M 14.949219 27 L 17.859375 27 L 17.859375 35.5 C 17.859375 36.328125 17.207031 37 16.402344 37 C 15.601562 37 14.949219 36.328125 14.949219 35.5 Z M 14.949219 27 "/>
<path style=" stroke:none;fill-rule:nonzero;fill:rgb(33.333333%,29.019608%,63.137255%);fill-opacity:1;" d="M 19.796875 27 L 22.707031 27 L 22.707031 35.5 C 22.707031 36.328125 22.054688 37 21.253906 37 C 20.449219 37 19.796875 36.328125 19.796875 35.5 Z M 19.796875 27 "/>
<path style=" stroke:none;fill-rule:nonzero;fill:rgb(33.333333%,29.019608%,63.137255%);fill-opacity:1;" d="M 47.917969 39 C 47.917969 39 40.160156 40 34.828125 37 C 34.828125 37 36.128906 45.878906 45.90625 46 Z M 47.917969 39 "/>
<path style=" stroke:none;fill-rule:nonzero;fill:rgb(33.333333%,29.019608%,63.137255%);fill-opacity:1;" d="M 44.882812 49.550781 L 43.015625 56.027344 C 42.398438 57.820312 39.933594 57.796875 39.351562 55.992188 L 38.75 54.128906 C 38.664062 53.871094 38.433594 53.761719 38.222656 53.792969 L 38.464844 52.144531 C 38.464844 52.144531 42.101562 52.5 44.882812 49.550781 Z M 44.882812 49.550781 "/>
</g>
</defs>
<g id="surface1">
<path style=" stroke:none;fill-rule:nonzero;fill:rgb(98.039216%,69.411765%,16.862745%);fill-opacity:1;" d="M 63.71875 43.386719 L 54.082031 6.285156 C 53.515625 4.113281 52.140625 2.261719 50.253906 1.136719 C 48.367188 0.0117188 46.125 -0.292969 44.015625 0.289062 L 8.035156 10.234375 C 5.929688 10.816406 4.132812 12.234375 3.042969 14.183594 C 1.953125 16.128906 1.65625 18.441406 2.21875 20.613281 L 11.855469 57.714844 C 12.417969 59.886719 13.796875 61.738281 15.683594 62.863281 C 17.570312 63.988281 19.8125 64.292969 21.921875 63.710938 L 57.902344 53.773438 C 58.945312 53.488281 59.921875 52.992188 60.78125 52.3125 C 61.636719 51.632812 62.359375 50.789062 62.898438 49.824219 C 63.4375 48.859375 63.789062 47.792969 63.929688 46.691406 C 64.070312 45.585938 64 44.464844 63.71875 43.386719 Z M 63.71875 43.386719 "/>
<path style="fill-rule:nonzero;fill:rgb(100%,100%,100%);fill-opacity:1;stroke-width:1.2;stroke-linecap:butt;stroke-linejoin:miter;stroke:rgb(33.333333%,29.019608%,63.137255%);stroke-opacity:1;stroke-miterlimit:4;" d="M 9.009338 28.421875 L 9.210754 27.90625 L 9.371887 28.318359 C 9.919739 29.726562 11.933899 29.662109 12.389099 28.220703 L 12.850342 26.757812 C 13.929932 27.070312 15.067932 27.105469 16.161621 26.861328 L 16.663147 28.220703 C 16.939087 28.974609 17.670227 29.302734 18.306702 29.287109 C 18.878723 29.273438 19.507141 28.976562 19.783081 28.339844 C 20.355103 29.628906 22.258484 29.595703 22.747925 28.214844 L 22.753967 28.201172 L 22.757996 28.185547 L 25.177002 20.039062 C 29.517517 19.320312 31.811646 15.419922 31.811646 12.5 C 31.811646 11.818359 31.714966 11.275391 31.616272 10.894531 C 31.569946 10.714844 31.523621 10.572266 31.485352 10.466797 C 31.757263 8.96875 31.535706 7.009766 30.997925 5.40625 C 30.717957 4.566406 30.335266 3.783203 29.855896 3.195312 C 29.380554 2.613281 28.74408 2.150391 27.960571 2.150391 C 26.983704 2.150391 26.355286 2.804688 25.976624 3.503906 C 25.712769 3.990234 25.533508 4.558594 25.40863 5.105469 C 24.443848 4.810547 23.440796 4.650391 22.4599 4.650391 C 21.652222 4.650391 20.824402 4.708984 20.008667 4.835938 C 19.879761 4.273438 19.69043 3.689453 19.412476 3.195312 C 19.031799 2.519531 18.411438 1.900391 17.460754 1.900391 C 16.860535 1.900391 16.342896 2.177734 15.92395 2.5625 C 15.507019 2.947266 15.156555 3.466797 14.870544 4.039062 C 14.326721 5.126953 13.964172 6.505859 13.841309 7.808594 C 12.767761 9.003906 12.111145 10.558594 12.111145 12.5 L 12.111145 12.515625 C 12.111145 12.685547 12.068848 12.804688 12.028564 12.861328 C 12.012451 12.884766 12.000366 12.892578 11.998352 12.894531 C 11.996338 12.894531 11.988281 12.900391 11.960083 12.900391 L 7.710205 12.900391 C 7.307373 12.900391 7.14624 12.802734 7.053589 12.6875 C 6.934753 12.537109 6.809875 12.210938 6.809875 11.5 L 6.809875 5 C 6.809875 3.425781 5.534912 2.150391 3.959839 2.150391 C 2.38678 2.150391 1.109802 3.425781 1.109802 5 L 1.109802 15 C 1.109802 15.017578 1.111816 15.035156 1.111816 15.052734 C 1.111816 15.097656 1.109802 15.142578 1.109802 15.1875 L 1.109802 15.25 C 1.109802 19.289062 2.741272 22.064453 3.704041 23.089844 L 6.014282 28.386719 C 6.513794 29.773438 8.473572 29.802734 9.009338 28.421875 Z M 9.009338 28.421875 " transform="matrix(1.939394,0,0,2,0,0)"/>
<path style=" stroke:none;fill-rule:nonzero;fill:rgb(33.333333%,29.019608%,63.137255%);fill-opacity:1;" d="M 43.558594 26 C 42.105469 26 37.257812 23 37.257812 21.5 C 37.257812 19 41.136719 18 43.558594 18 C 45.984375 18 49.863281 19 49.863281 21.5 C 49.863281 23 45.015625 26 43.558594 26 Z M 43.558594 26 "/>
<use xlink:href="#surface6" mask="url(#mask0)"/>
<path style=" stroke:none;fill-rule:nonzero;fill:rgb(33.333333%,29.019608%,63.137255%);fill-opacity:1;" d="M 43.558594 27.5 C 44.046875 29.5 45.5 30 46.953125 30 C 46.46875 30.5 45.5 31.5 43.558594 31.5 C 41.621094 31.5 40.652344 30.5 40.167969 30 C 41.621094 30 43.074219 29.5 43.558594 27.5 Z M 43.558594 27.5 "/>
</g>
</svg>
